<?xml version="1.0" encoding="UTF-8"?>
<svg id="Laag_1" data-name="Laag 1" xmlns="http://www.w3.org/2000/svg" xmlns:xlink="http://www.w3.org/1999/xlink" viewBox="0 0 187 182">
  <defs>
    <style>
      .cls-1, .cls-2 {
        fill: none;
      }

      .cls-3 {
        fill: #434952;
      }

      .cls-2 {
        clip-path: url(#clippath);
      }
    </style>
    <clipPath id="clippath">
      <rect class="cls-1" x="18.95" y="16.17" width="151.05" height="151.05"/>
    </clipPath>
  </defs>
  <g id="Group_405" data-name="Group 405">
    <g class="cls-2">
      <g id="Group_404" data-name="Group 404">
        <path id="Path_777" data-name="Path 777" class="cls-3" d="m143.22,51.36c0,4.84-3.92,8.76-8.76,8.76-4.84,0-8.76-3.92-8.76-8.76s3.92-8.76,8.76-8.76,8.76,3.92,8.76,8.76h0m-10.91,39.28c0,20.33-16.48,36.82-36.82,36.82s-36.82-16.48-36.82-36.82,16.48-36.82,36.82-36.82h0c20.33.02,36.8,16.49,36.82,36.82m-13.23,0c0-13.02-10.55-23.57-23.57-23.57-13.02,0-23.57,10.55-23.57,23.57s10.55,23.57,23.57,23.57h0c13.01-.02,23.56-10.56,23.57-23.57m50.92-29.58c0-24.79-20.1-44.89-44.89-44.89h-61.27c-24.79,0-44.89,20.1-44.89,44.89v61.26c0,24.79,20.1,44.89,44.89,44.89h61.26c24.79,0,44.89-20.1,44.89-44.89v-61.26Zm-14.77,60.59c-.02,17.01-13.8,30.79-30.81,30.8h-59.9c-17.03,0-30.83-13.8-30.83-30.83v-59.89c0-17.03,13.81-30.83,30.83-30.83h59.9c17.02.01,30.81,13.81,30.81,30.83v59.91Z"/>
      </g>
    </g>
  </g>
</svg>