<?xml version="1.0" encoding="UTF-8"?>
<svg id="Laag_1" data-name="Laag 1" xmlns="http://www.w3.org/2000/svg" viewBox="0 0 200 113">
  <defs>
    <style>
      .cls-1 {
        fill: #006eb9;
      }

      .cls-2 {
        fill: #ff5f00;
      }
    </style>
  </defs>
  <g>
    <path class="cls-2" d="m87.7,79.94c-.25-.06-.5-.09-.77-.09-.88,0-1.54.56-1.54,2.21,0,1.23.33,1.81,1.02,1.81.76,0,1.29-.89,1.29-2.12v-1.81Zm.18,5.64c0-.31.01-.68.08-1.05h-.03c-.4.71-1.14,1.23-2.24,1.23-1.78,0-2.68-1.35-2.68-3.46,0-2.42,1.44-4.24,3.96-4.24.25,0,.5.02.74.05v-3.35h2.26v10.83h-2.08Z"/>
    <path class="cls-2" d="m96.11,85.58c0-.27.01-.8.09-1.16h-.03c-.44.76-1.26,1.32-2.43,1.32-1.65,0-2.19-1.05-2.19-2.33v-5.21h2.27v4.69c0,.59.16.95.68.95.8,0,1.45-.98,1.45-2.06v-3.58h2.27v7.37h-2.11Z"/>
    <path class="cls-2" d="m102.49,85.74c-1.71,0-2.25-.56-2.25-2.37v-3.43h-1.11v-1.74h1.11v-2.18l2.25-.61v2.79h1.6v1.74h-1.59v2.91c0,.76.19,1.01.76,1.01.27,0,.59-.06.83-.12v1.8c-.49.12-1.07.21-1.6.21"/>
    <path class="cls-2" d="m108.23,85.72c-2.24,0-3.38-1.23-3.38-3.6,0-2.22,1.19-4.08,3.88-4.08.48,0,.96.07,1.42.19l-.24,1.96c-.37-.12-.76-.21-1.16-.21-1.04,0-1.56.74-1.56,1.96,0,1.13.5,1.82,1.53,1.82.43,0,.89-.09,1.25-.27l.18,1.91c-.5.19-1.22.31-1.93.31"/>
    <path class="cls-2" d="m115.8,85.58v-4.69c0-.59-.16-.95-.68-.95-.8,0-1.47.98-1.47,2.08v3.56h-2.25v-10.83h2.25v2.95c0,.43-.03,1.05-.12,1.51h.01c.43-.7,1.23-1.17,2.33-1.17,1.65,0,2.18,1.05,2.18,2.33v5.21h-2.25Z"/>
    <path class="cls-2" d="m104.47,53.26c.25-.74.37-1.62.37-2.64,0-.84-.05-1.62-.16-2.35-.11-.72-.33-1.35-.66-1.88-.33-.53-.81-.94-1.42-1.25-.61-.3-1.42-.45-2.41-.45h-.86c-.2,0-.42.02-.66.06v11.69c.26.06.72.1,1.39.1s1.29-.12,1.87-.36c.58-.24,1.08-.6,1.52-1.08.43-.49.77-1.1,1.02-1.85m6.86-3.14c0,1.87-.28,3.53-.84,4.96-.56,1.43-1.36,2.64-2.39,3.63-1.03.99-2.27,1.74-3.71,2.24-1.44.51-3.05.76-4.81.76-2.41,0-4.71-.06-6.91-.19v-21.7c.86-.04,1.99-.09,3.37-.13,1.39-.04,2.88-.06,4.47-.06s3.05.18,4.38.53c1.32.36,2.46.94,3.42,1.76.96.82,1.7,1.9,2.23,3.24.53,1.35.79,3,.79,4.96m8.91.55c0-2.38-.42-4.65-1.17-6.77-.49-1.37-1.13-2.67-1.89-3.89-3.55-5.65-9.83-9.41-17-9.41s-13.44,3.76-16.99,9.4c1.65,3.2,2.58,6.82,2.58,10.66s-.94,7.46-2.58,10.66c3.55,5.65,9.83,9.41,16.99,9.41s13.45-3.76,17-9.41c.76-1.21,1.4-2.51,1.89-3.89.76-2.11,1.17-4.39,1.17-6.77"/>
  </g>
  <g>
    <g>
      <path class="cls-1" d="m50.59,79.97c-.71,0-1.41.55-1.41,1.84s.43,1.97,1.37,1.97c.82,0,1.38-.68,1.38-1.91s-.4-1.9-1.34-1.9m-.21,5.77c-2.14,0-3.55-1.05-3.55-3.68,0-2.4,1.65-4.02,3.9-4.02s3.53,1.25,3.53,3.69-1.66,4-3.89,4"/>
      <path class="cls-1" d="m59.01,79.91c-.77,0-1.31.89-1.31,2.12v1.81c.24.06.48.09.79.09.88,0,1.53-.56,1.53-2.21,0-1.23-.33-1.81-1.01-1.81m-.55,5.78c-.28,0-.52-.02-.76-.06v3.46h-2.25v-10.89h2.08c0,.31-.01.68-.06,1.05h.03c.42-.77,1.14-1.22,2.23-1.22,1.75,0,2.68,1.3,2.68,3.44,0,2.52-1.27,4.21-3.94,4.21"/>
      <path class="cls-1" d="m66.71,79.67c-.65,0-1.13.52-1.19,1.28h2.23c.03-.83-.39-1.28-1.04-1.28m3.19,2.77h-4.39c.02.98.61,1.54,1.83,1.54.73,0,1.48-.15,2.17-.46l.21,1.71c-.83.34-1.82.5-2.73.5-2.42,0-3.75-1.17-3.75-3.77,0-2.27,1.26-3.94,3.54-3.94s3.2,1.5,3.2,3.42c0,.31-.03.64-.07.99"/>
      <path class="cls-1" d="m75.64,85.58v-4.69c0-.59-.16-.95-.68-.95-.8,0-1.47.98-1.47,2.06v3.57h-2.25v-7.37h2.11c0,.27-.01.8-.09,1.16h.02c.46-.76,1.27-1.32,2.45-1.32,1.65,0,2.18,1.05,2.18,2.33v5.21h-2.26Z"/>
    </g>
    <g>
      <path class="cls-1" d="m127.85,76.57c-.27-.09-.56-.13-.82-.13-.68,0-.99.33-.99,1.11v.65h1.51v1.74h-1.51v5.64h-2.26v-5.64h-1.13v-1.74h1.13v-.64c0-1.96.88-2.95,3.03-2.95.39,0,.8.03,1.19.12l-.15,1.84Z"/>
      <path class="cls-1" d="m128.97,78.2h2.25v7.37h-2.25v-7.37Zm1.13-.77c-.76,0-1.38-.59-1.38-1.34s.62-1.34,1.38-1.34,1.39.59,1.39,1.34-.62,1.34-1.39,1.34"/>
      <path class="cls-1" d="m136.59,79.92c-.77,0-1.31.88-1.31,2.06v1.85c.21.06.44.09.79.09.88,0,1.53-.56,1.53-2.21,0-1.23-.33-1.8-1.01-1.8m-.68,5.81c-1.1,0-2-.13-2.88-.37v-10.62h2.25v2.91c0,.46-.04,1.08-.1,1.47h.01c.36-.65,1.11-1.08,2.09-1.08,1.76,0,2.7,1.32,2.7,3.46,0,2.42-1.43,4.24-4.08,4.24"/>
      <path class="cls-1" d="m144.43,79.67c-.65,0-1.12.52-1.19,1.28h2.22c.03-.83-.39-1.28-1.04-1.28m3.19,2.77h-4.39c.01.98.61,1.54,1.82,1.54.73,0,1.48-.15,2.17-.46l.21,1.71c-.83.34-1.82.5-2.73.5-2.42,0-3.75-1.17-3.75-3.77,0-2.27,1.26-3.94,3.54-3.94s3.2,1.5,3.2,3.42c0,.31-.03.64-.07.99"/>
      <path class="cls-1" d="m153.25,80.27c-1.23-.28-1.88.43-1.88,2.27v3.04h-2.25v-7.37h2.11c0,.31-.03.85-.1,1.31h.03c.39-.88,1.08-1.56,2.21-1.48l-.1,2.24Z"/>
    </g>
    <path class="cls-1" d="m66.23,53.44c.28-.75.42-1.71.42-2.87,0-3.85-1.42-5.78-4.26-5.78-.52,0-1.03.11-1.53.32-.51.22-.96.55-1.36,1-.4.45-.72,1.04-.97,1.76-.25.72-.37,1.6-.37,2.63,0,1.87.32,3.34.95,4.39.64,1.06,1.68,1.58,3.15,1.58.47,0,.97-.09,1.49-.28.52-.18.99-.5,1.42-.95.43-.45.78-1.06,1.06-1.81m6.81-3.16c0,1.79-.28,3.4-.86,4.84-.57,1.44-1.35,2.67-2.36,3.68-1,1.01-2.17,1.8-3.52,2.36-1.35.56-2.79.84-4.34.84-1.72,0-3.22-.25-4.49-.76-1.27-.51-2.33-1.23-3.18-2.18-.85-.95-1.49-2.1-1.91-3.47-.42-1.37-.63-2.91-.63-4.63s.29-3.36.87-4.79c.58-1.43,1.37-2.65,2.37-3.67,1-1.01,2.17-1.8,3.52-2.36,1.35-.56,2.78-.84,4.31-.84,1.42,0,2.75.2,3.99.6,1.24.4,2.32,1.04,3.24,1.92.93.88,1.65,2.02,2.18,3.41.53,1.39.79,3.07.79,5.05m9.42.39c0-2.38-.42-4.66-1.17-6.77-.49-1.37-1.13-2.67-1.89-3.88-3.55-5.65-9.83-9.4-16.99-9.4-11.08,0-20.06,8.98-20.06,20.06s8.98,20.06,20.06,20.06c7.16,0,13.44-3.76,16.99-9.41.76-1.21,1.4-2.51,1.89-3.89.76-2.12,1.17-4.4,1.17-6.77"/>
    <path class="cls-1" d="m146.27,44.92h-9v3.55h8.47v4.91h-8.47v8.17h-6.07v-21.79h15.07v5.17Zm11.75,5.75c0-11.08-8.98-20.06-20.06-20.06-7.16,0-13.45,3.76-17,9.41,1.65,3.2,2.58,6.82,2.58,10.65s-.94,7.46-2.58,10.65c3.55,5.65,9.83,9.41,17,9.41,11.08,0,20.06-8.98,20.06-20.06"/>
  </g>
</svg>