<?xml version="1.0" encoding="UTF-8"?>
<svg id="Laag_1" data-name="Laag 1" xmlns="http://www.w3.org/2000/svg" viewBox="0 0 241 102">
  <defs>
    <style>
      .cls-1 {
        fill: #88987c;
      }
    </style>
  </defs>
  <g id="Riven_Logo_01" data-name="Riven  Logo 01">
    <path id="Path_786" data-name="Path 786" class="cls-1" d="m76.39,79.91c-3.57-5.6-7.26-11.12-11.08-16.56-1.74-2.47-3.95-4.6-5.81-6.72,1.79-.7,4.29-1.44,6.57-2.62,11.33-5.88,12.51-21.14,2.16-28.3-5.02-3.47-10.75-4.72-16.08-4.62,2.45,1.26,5.77,2.24,8.13,4.32,5.23,4.59,6.09,10.92,5.07,17.45-1.43,9.18-6.73,13.62-15.95,13.69-.17,0-.35,0-.54-.01-1.17-.07-2.31-.34-3.38-.81l-3.97-1.71c-2.37-1.02-4.54-2.47-6.39-4.26-2.04-1.97-3.7-4.3-4.92-6.86l-3.28-6.9-3.08,7.13c-1.09,2.54-2.64,4.85-4.56,6.83-1.85,1.91-4.02,3.47-6.42,4.61l-7.15,3.4,7.38,3.19c2.37,1.02,4.54,2.47,6.39,4.26,2.04,1.97,3.7,4.3,4.92,6.86l3.28,6.9,3.08-7.14c1.09-2.53,2.64-4.85,4.56-6.83,1.92-1.96,4.18-3.56,6.67-4.72l3.06-1.26c1.1-.45,3.83-.58,4.94-.16,2.54.98,4.15,2.29,5.84,5.07l11.29,17.17c5.45,8.97,10.35,9.76,21.47,8.38-6.06-.83-9.22-5.1-12.19-9.76h-.01Zm-41.94-20.88c-1.14.59-2.16,1.39-3.02,2.34-.02.02-.03.03-.04.05-.86.98-1.53,2.1-1.98,3.31l-1.27,3.32-1.67-3.16c-.59-1.14-1.39-2.16-2.34-3.02-.02-.01-.03-.02-.05-.04-.98-.86-2.1-1.53-3.31-1.98l-3.32-1.27,3.16-1.67c1.14-.59,2.16-1.39,3.02-2.34.02-.01.03-.03.04-.04.86-.98,1.53-2.1,1.98-3.31l1.27-3.32,1.67,3.16c.59,1.14,1.39,2.16,2.34,3.02.02.02.03.03.05.04.98.86,2.1,1.53,3.31,1.98l3.32,1.27-3.16,1.67h0Z"/>
    <g id="Group_437" data-name="Group 437">
      <path id="Path_787" data-name="Path 787" class="cls-1" d="m159.08,51.48l-12.5-28.3c-.47-1.03-1.75-1.69-3.27-1.69-1.86,0-3.76,1.06-3.83,3.44v22.32c0,2.59,1.86,3.44,4.22,3.87h-13.73c-5.57-.02-5.67-.13-8.21-3-.25-.28-.52-.59-.82-.92l-6.94-9.64h-3.67v9.69c0,2.43.61,3.38,2.91,3.87h-10.84c2.25-.43,3.92-1.27,3.92-3.87v-22.3c0-2.61-1.67-3.45-3.92-3.87h12.48c6.81,0,10.88,2.98,10.88,7.98,0,4.58-3.84,7.02-7.13,7.72l-.97.21,7.7,10.07c2.09,3.28,4.32,3.98,5.81,3.98,1.21,0,2.37-.48,3.23-1.34.68-.64,1.07-1.52,1.1-2.45v-22.3c0-2.61-1.67-3.45-3.92-3.87h22.31c-1.39.32-2.47,1.02-2.47,2.67.03.7.2,1.39.5,2.02l9.18,20.66,8.04-20.67c.29-.64.45-1.32.49-2.01,0-1.65-1.2-2.36-2.57-2.67h29.74l.19,6.46h-.02c-2.13-4.78-3.72-6.11-7.19-6.11h-7.81v13.97h7.05c2.55,0,3.28-2.01,3.65-4.06h.23v8.51h-.23c-.38-2.03-1.1-4.01-3.65-4.01h-7.05v11.29c0,3.04,1.93,3.66,4.82,3.66h3.48c3.65,0,5.23-1.98,8.03-6.82h.19l-1.18,7.17h-23.57c2.36-.43,4.22-1.29,4.22-3.87v-22.3c.03-.99-.35-1.95-1.04-2.66-.74-.72-1.74-1.12-2.78-1.11-1.4-.04-2.69.73-3.32,1.98l-11.32,28.31h-.41.01Zm-48.76-14.3h3.26c5.12,0,7.94-2.89,7.94-8.12,0-4.68-3.1-7.59-8.08-7.59h-3.13v15.71Zm114.11,14.08l-20.78-26.53v22.47c0,2.57,1.11,3.48,3.55,3.92h-8.25c2.27-.43,3.95-1.28,3.95-3.92v-22.77l-.05-.11c-.78-2.02-2.79-2.88-4.52-3.25h7.68l18.33,23.64v-19.72c0-2.57-.89-3.48-3.26-3.92h7.96c-2.27.43-3.95,1.27-3.95,3.92v26.26h-.67.01Z"/>
      <g id="Group_436" data-name="Group 436">
        <path id="Path_788" data-name="Path 788" class="cls-1" d="m135.33,79.33c0,5.57,2.76,9.67,7.06,9.74,7.26.11,9.62-3.6,9.62-10.04v-15.13c-.14-4.35-5.3-4.39-5.3-4.39h10.23s-4.32.33-4.27,4.35v15.87c0,7.31-2.89,10.74-10.41,10.74-6.65,0-11.02-3.39-11.02-10.87v-15.83c-.07-4.53-3.83-4.26-3.83-4.26h11.74s-3.89,0-3.83,4.26v15.57h0Z"/>
        <path id="Path_789" data-name="Path 789" class="cls-1" d="m157.25,89.5s3.78-.11,3.76-4.19v-21.62c-.28-4.19-4.26-4.19-4.26-4.19h12.46c6.54,0,10.13,2.52,10.13,7.39,0,4.31-4.1,6.58-8.08,7.05,5.64.22,9.48,3.04,9.48,7.52,0,4.79-3.72,8.03-10.55,8.03h-12.95Zm7.78-29.56v13.85h3.16c4.79,0,6.96-2.63,6.96-6.77,0-3.84-2.39-7.08-6.96-7.08h-3.16Zm0,14.29v11c0,3.55,1.24,3.84,4.19,3.84h.51c4.74,0,6.83-3.45,6.83-7.6,0-3.76-2.18-7.24-7.44-7.24h-4.1,0Z"/>
        <path id="Path_790" data-name="Path 790" class="cls-1" d="m194.35,85.4c-.05,3.87,4.14,4.1,4.14,4.1h-12.13s4.15,0,4.19-4.1v-7.95l-8.55-15.22c-1.76-2.74-2.52-2.74-2.52-2.74h10.9s-3.85,0-3.8,2.74c.01.68.39,1.24.77,1.96l6.94,11.85,6.41-11.32c.3-.56.76-1.37.73-2.05-.11-2.26-4.25-3.18-4.25-3.18h8.42s-1.14.18-2.52,2.74l-8.72,15.17v7.99Z"/>
        <path id="Path_791" data-name="Path 791" class="cls-1" d="m131.17,89.45s-3.73-.7-5.83-3.98l-7.7-10.07.97-.21c3.29-.7,7.13-3.15,7.13-7.72,0-5-4.07-7.98-10.88-7.98h-12.48c2.25.43,3.92,1.27,3.92,3.87v22.3c0,2.61-1.67,3.45-3.92,3.87h10.84c-2.3-.5-2.91-1.44-2.91-3.87v-9.69h3.67l6.94,9.64c.3.33.57.64.82.92,2.54,2.86,2.64,2.98,8.21,2.99h1.2s0-.07,0-.09h0Zm-17.59-13.85h-3.26v-15.71h3.13c4.98,0,8.08,2.91,8.08,7.59,0,5.24-2.82,8.12-7.94,8.12h0Z"/>
      </g>
    </g>
  </g>
</svg>