<?xml version="1.0" encoding="UTF-8"?>
<svg id="Laag_1" data-name="Laag 1" xmlns="http://www.w3.org/2000/svg" viewBox="0 0 250 102">
  <defs>
    <style>
      .cls-1 {
        fill: #fff;
      }
    </style>
  </defs>
  <g id="Riven_Logo_01" data-name="Riven  Logo 01">
    <path id="Path_786" data-name="Path 786" class="cls-1" d="m82.83,72.38c-3.61-5.68-7.36-11.27-11.22-16.78-1.76-2.5-4-4.66-5.88-6.81,1.81-.71,4.35-1.46,6.66-2.66,11.48-5.96,12.68-21.42,2.19-28.68-5.09-3.52-10.89-4.79-16.3-4.68,2.48,1.27,5.84,2.27,8.24,4.38,5.3,4.65,6.17,11.06,5.14,17.68-1.45,9.3-6.82,13.8-16.16,13.87-.17,0-.36,0-.55-.02-1.18-.07-2.34-.34-3.43-.82l-4.03-1.74c-2.4-1.04-4.6-2.5-6.47-4.32-2.06-2-3.75-4.35-4.99-6.95l-3.32-6.99-3.12,7.23c-1.11,2.57-2.67,4.92-4.62,6.92-1.87,1.93-4.08,3.51-6.51,4.67l-7.24,3.44,7.48,3.23c2.4,1.04,4.6,2.5,6.47,4.32,2.06,2,3.75,4.35,4.99,6.95l3.32,6.99,3.12-7.23c1.11-2.57,2.67-4.91,4.62-6.92,1.95-1.98,4.24-3.61,6.76-4.79l3.1-1.27c1.11-.46,3.88-.59,5-.16,2.57.99,4.2,2.32,5.91,5.14l11.44,17.39c5.52,9.09,10.48,9.89,21.75,8.49-6.14-.84-9.35-5.16-12.35-9.88h-.01Zm-42.49-21.16c-1.15.6-2.19,1.4-3.06,2.37-.02.02-.03.03-.04.05-.87.99-1.55,2.13-2.01,3.36l-1.28,3.36-1.69-3.2c-.6-1.15-1.4-2.19-2.37-3.06-.02-.02-.03-.03-.05-.04-.99-.87-2.13-1.55-3.36-2.01l-3.36-1.28,3.2-1.69c1.15-.6,2.19-1.4,3.06-2.37.02-.02.03-.03.04-.05.87-.99,1.55-2.13,2.01-3.36l1.28-3.36,1.69,3.2c.6,1.15,1.4,2.19,2.37,3.06.02.02.03.03.05.04.99.87,2.13,1.55,3.36,2.01l3.36,1.28-3.2,1.69h0Z"/>
    <g id="Group_437" data-name="Group 437">
      <path id="Path_787" data-name="Path 787" class="cls-1" d="m166.62,43.57l-12.67-28.67c-.48-1.05-1.78-1.72-3.32-1.72-1.88,0-3.81,1.08-3.88,3.49v22.61c0,2.62,1.89,3.49,4.27,3.92h-13.92c-5.65-.02-5.75-.13-8.32-3.04-.25-.28-.53-.59-.83-.93l-7.04-9.77h-3.72v9.81c0,2.47.61,3.43,2.94,3.92h-10.98c2.28-.43,3.98-1.28,3.98-3.92v-22.59c0-2.65-1.7-3.5-3.98-3.92h12.65c6.9,0,11.02,3.02,11.02,8.08,0,4.64-3.89,7.12-7.22,7.82l-.98.21,7.8,10.2c2.12,3.33,4.38,4.03,5.88,4.03,1.23,0,2.4-.49,3.27-1.36.68-.65,1.08-1.54,1.11-2.48v-22.59c0-2.65-1.7-3.5-3.98-3.92h22.6c-1.41.32-2.5,1.04-2.5,2.71.03.71.2,1.41.5,2.05l9.31,20.94,8.15-20.95c.29-.64.46-1.34.5-2.04,0-1.68-1.21-2.39-2.6-2.71h30.14l.19,6.54h-.02c-2.16-4.85-3.77-6.19-7.29-6.19h-7.91v14.15h7.14c2.58,0,3.32-2.04,3.7-4.11h.23v8.62h-.23c-.38-2.06-1.11-4.07-3.7-4.07h-7.14v11.44c0,3.08,1.96,3.71,4.88,3.71h3.52c3.7,0,5.3-2.01,8.14-6.91h.19l-1.19,7.26h-23.89c2.39-.44,4.27-1.3,4.27-3.92v-22.59c.03-1-.35-1.98-1.06-2.7-.75-.73-1.77-1.14-2.82-1.13-1.42-.04-2.73.74-3.36,2.01l-11.47,28.69h-.42.01Zm-49.41-14.49h3.31c5.19,0,8.05-2.92,8.05-8.23,0-4.74-3.14-7.69-8.18-7.69h-3.17v15.92Zm115.63,14.27l-21.06-26.88v22.77c0,2.6,1.12,3.53,3.59,3.97h-8.36c2.3-.43,4.01-1.29,4.01-3.97v-23.07l-.05-.11c-.79-2.05-2.82-2.92-4.58-3.29h7.78l18.57,23.95v-19.98c0-2.6-.9-3.52-3.3-3.97h8.06c-2.3.43-4.01,1.29-4.01,3.97v26.61h-.68.02Z"/>
      <g id="Group_436" data-name="Group 436">
        <path id="Path_788" data-name="Path 788" class="cls-1" d="m142.55,71.79c0,5.64,2.8,9.8,7.16,9.86,7.36.11,9.75-3.65,9.75-10.17v-15.33c-.14-4.41-5.37-4.45-5.37-4.45h10.36s-4.38.33-4.32,4.41v16.08c0,7.4-2.92,10.88-10.55,10.88-6.74,0-11.17-3.44-11.17-11.01v-16.04c-.07-4.59-3.88-4.32-3.88-4.32h11.89s-3.94,0-3.88,4.32v15.77h0Z"/>
        <path id="Path_789" data-name="Path 789" class="cls-1" d="m164.76,82.09s3.83-.11,3.81-4.24v-21.91c-.28-4.24-4.32-4.24-4.32-4.24h12.63c6.63,0,10.26,2.55,10.26,7.49,0,4.37-4.16,6.67-8.18,7.14,5.72.22,9.61,3.08,9.61,7.62,0,4.85-3.77,8.14-10.69,8.14h-13.12Zm7.88-29.95v14.04h3.2c4.85,0,7.06-2.66,7.06-6.86,0-3.89-2.43-7.18-7.06-7.18h-3.2Zm0,14.48v11.14c0,3.59,1.25,3.89,4.24,3.89h.52c4.81,0,6.92-3.5,6.92-7.7,0-3.81-2.21-7.34-7.53-7.34h-4.16,0Z"/>
        <path id="Path_790" data-name="Path 790" class="cls-1" d="m202.36,77.94c-.06,3.92,4.2,4.16,4.2,4.16h-12.3s4.21,0,4.24-4.16v-8.05l-8.66-15.42c-1.79-2.77-2.55-2.77-2.55-2.77h11.04s-3.9,0-3.85,2.77c.01.69.39,1.25.78,1.99l7.03,12.01,6.49-11.47c.3-.56.77-1.39.74-2.08-.11-2.29-4.31-3.22-4.31-3.22h8.53s-1.16.18-2.55,2.77l-8.83,15.37v8.1Z"/>
        <path id="Path_791" data-name="Path 791" class="cls-1" d="m138.34,82.04s-3.78-.71-5.91-4.03l-7.8-10.2.99-.21c3.33-.71,7.22-3.19,7.22-7.82,0-5.06-4.12-8.08-11.02-8.08h-12.65c2.28.43,3.98,1.28,3.98,3.92v22.59c0,2.65-1.7,3.5-3.98,3.92h10.98c-2.33-.5-2.94-1.46-2.94-3.92v-9.81h3.72l7.04,9.77c.3.34.58.65.83.93,2.57,2.9,2.68,3.02,8.32,3.03h1.21s0-.07,0-.09h0Zm-17.82-14.04h-3.3v-15.92h3.17c5.05,0,8.18,2.94,8.18,7.69,0,5.31-2.86,8.23-8.05,8.23h0Z"/>
      </g>
    </g>
  </g>
</svg>