<?xml version="1.0" encoding="UTF-8"?>
<svg id="Laag_1" data-name="Laag 1" xmlns="http://www.w3.org/2000/svg" viewBox="0 0 538.09 163.06">
  <defs>
    <style>
      .cls-1 {
        fill: #1d1d1b;
      }
    </style>
  </defs>
  <g>
    <path class="cls-1" d="m367.66,90.39c0,11.11,5.51,19.3,14.1,19.43,14.5.22,19.21-7.19,19.21-20.03v-30.2c-.27-8.69-10.58-8.77-10.58-8.77h20.41s-8.63.65-8.52,8.68v31.67c0,14.58-5.76,21.43-20.78,21.43-13.28,0-22-6.77-22-21.69v-31.59c-.14-9.04-7.64-8.5-7.64-8.5h23.43s-7.76,0-7.64,8.5v31.07Z"/>
    <path class="cls-1" d="m411.41,110.69s7.55-.22,7.51-8.36v-43.15c-.56-8.36-8.51-8.36-8.51-8.36h24.88c13.05,0,20.21,5.03,20.21,14.75,0,8.61-8.19,13.13-16.12,14.07,11.26.43,18.93,6.06,18.93,15.01,0,9.55-7.42,16.03-21.06,16.03h-25.84Zm15.52-59v27.65h6.31c9.55,0,13.9-5.24,13.9-13.51,0-7.67-4.78-14.14-13.9-14.14h-6.31Zm0,28.52v21.95c0,7.08,2.47,7.66,8.36,7.66h1.02c9.47,0,13.64-6.89,13.64-15.17,0-7.51-4.35-14.45-14.84-14.45h-8.19Z"/>
    <path class="cls-1" d="m485.47,102.5c-.11,7.72,8.27,8.19,8.27,8.19h-24.22s8.29,0,8.36-8.19v-15.86l-17.06-30.37c-3.52-5.46-5.03-5.46-5.03-5.46h21.75s-7.68,0-7.59,5.46c.02,1.36.77,2.47,1.54,3.92l13.85,23.66,12.79-22.6c.6-1.11,1.51-2.73,1.45-4.09-.21-4.51-8.48-6.35-8.48-6.35h16.8s-2.28.35-5.03,5.46l-17.4,30.28v15.95Z"/>
    <path class="cls-1" d="m359.36,110.6s-7.45-1.39-11.64-7.94l-15.36-20.09,1.94-.41c6.56-1.4,14.23-6.28,14.23-15.41,0-9.97-8.12-15.92-21.71-15.92h-24.91c4.49.85,7.83,2.53,7.83,7.73v44.5c0,5.21-3.34,6.89-7.83,7.73h21.63c-4.59-.99-5.8-2.88-5.8-7.73v-19.33h7.33l13.86,19.25c.6.66,1.14,1.28,1.64,1.84,5.07,5.71,5.27,5.94,16.39,5.97h2.39s.01-.14.01-.18Zm-35.11-27.65h-6.51v-31.35h6.24c9.94,0,16.12,5.8,16.12,15.14,0,10.45-5.63,16.21-15.85,16.21Z"/>
  </g>
  <path class="cls-1" d="m143.34,111.14l-24.95-56.48c-.94-2.06-3.5-3.38-6.53-3.38-3.7,0-7.5,2.12-7.64,6.87v44.54c0,5.16,3.72,6.87,8.42,7.73h-27.41c-11.12-.04-11.32-.26-16.39-5.98-.5-.56-1.04-1.17-1.64-1.84l-13.86-19.25h-7.33v19.33c0,4.86,1.21,6.75,5.8,7.73h-21.63c4.5-.85,7.83-2.53,7.83-7.73v-44.5c0-5.21-3.34-6.89-7.83-7.73h24.91c13.59,0,21.71,5.95,21.71,15.92,0,9.14-7.66,14.02-14.23,15.41l-1.94.41,15.36,20.09c4.18,6.55,8.62,7.94,11.59,7.94,2.41,0,4.76-.97,6.44-2.67,1.41-1.42,2.21-3.2,2.19-4.89v-44.5c0-5.21-3.34-6.89-7.83-7.73h44.53c-2.77.63-4.92,2.04-4.92,5.33,0,1.16.29,2.36.99,4.04l18.33,41.24,16.05-41.26c.48-1.2.98-2.63.98-4.02,0-3.3-2.39-4.71-5.12-5.33h59.36l.37,12.89h-.03c-4.25-9.55-7.43-12.19-14.35-12.19h-15.59v27.88h14.07c5.09,0,6.54-4.01,7.29-8.1h.45v16.98h-.45c-.75-4.05-2.19-8.01-7.29-8.01h-14.07v22.53c0,6.06,3.85,7.31,9.62,7.31h6.94c7.29,0,10.43-3.95,16.03-13.62h.38l-2.35,14.31h-47.05c4.71-.86,8.42-2.57,8.42-7.73v-44.5c0-2.1-.71-3.94-2.08-5.31-1.41-1.41-3.43-2.22-5.55-2.22-2.94,0-5.47,1.52-6.62,3.96l-22.59,56.51h-.82Zm-97.32-28.55h6.51c10.22,0,15.85-5.76,15.85-16.21,0-9.34-6.18-15.14-16.12-15.14h-6.24v31.35Zm227.75,28.11l-41.48-52.94v44.85c0,5.12,2.21,6.95,7.08,7.82h-16.47c4.53-.85,7.89-2.55,7.89-7.82v-45.45l-.09-.22c-1.56-4.03-5.56-5.75-9.02-6.48h15.33l36.58,47.18v-39.36c0-5.12-1.77-6.94-6.5-7.82h15.88c-4.53.85-7.89,2.54-7.89,7.82v52.42h-1.34Z"/>
</svg>