<?xml version="1.0" encoding="UTF-8"?>
<svg id="Laag_1" data-name="Laag 1" xmlns="http://www.w3.org/2000/svg" viewBox="0 0 142.63 150.88">
  <defs>
    <style>
      .cls-1 {
        fill: #434952;
      }
    </style>
  </defs>
  <path class="cls-1" d="m97.95,13.84c-1.37,2.91-2.4,4.62-6.85,4.62-6.68,0-11.99-7.02-26.89-7.02-20.9,0-37.34,13.02-37.34,30.66,0,14.23,6.96,22.2,22.21,30.12v32.79c0,1.79-1.45,3.24-3.24,3.24h-5.44v.86h33.62v-.86h-5.26c-1.79,0-3.24-1.45-3.24-3.24l-.17-45.34c-22.79-9.12-27.01-17.48-27.01-26.64,0-10.62,8.22-20.72,25.86-20.72s29.12,12.5,33.91,31.69h.69V13.84h-.86Z"/>
  <path class="cls-1" d="m91.98,73.55v-19.25c0-1.78,1.45-3.23,3.23-3.23h5.24v-.85h-33.53v.85h5.41c1.78,0,3.23,1.45,3.23,3.23v11.79s0,0-.01,0v20.21c16.26,6.97,27.32,12.26,27.32,26.53,0,16.83-12.02,25.75-30.73,25.75-24.55,0-36.74-19.23-41.38-38.46h-.86v38.29h.86c1.2-2.92,3.26-6.18,7.73-6.18,7.9,0,19.4,7.21,33.65,7.21,27.13,0,43.61-14.08,43.61-34.34,0-12.63-4.75-21.59-23.77-31.55Z"/>
</svg>