<?xml version="1.0" encoding="utf-8"?>
<!-- Generator: Adobe Illustrator 27.6.1, SVG Export Plug-In . SVG Version: 6.00 Build 0)  -->
<svg version="1.1" id="Laag_1" xmlns="http://www.w3.org/2000/svg" xmlns:xlink="http://www.w3.org/1999/xlink" x="0px" y="0px"
	 viewBox="0 0 200 200" style="enable-background:new 0 0 200 200;" xml:space="preserve">
<style type="text/css">
	.st0{fill:#C3CACE;}
	.st1{fill:#434952;}
</style>
<rect y="0" class="st0" width="200" height="200"/>
<g>
	<path class="st1" d="M135.6,17.5c-1.9,3.9-3.2,6.2-9.1,6.2c-9,0-16.1-9.4-36-9.4c-28,0-50,17.4-50,41.1c0,19,9.4,29.7,29.7,40.3
		v43.9c0,2.4-1.9,4.3-4.3,4.3h-7.2v1.2h45v-1.2h-7.1c-2.4,0-4.3-1.9-4.3-4.3L92,78.8C61.4,66.7,55.8,55.4,55.8,43.2
		c0-14.2,11-27.7,34.7-27.7s39,16.7,45.4,42.5h0.9V17.5H135.6L135.6,17.5z"/>
	<path class="st1" d="M127.7,97.5V71.7c0-2.4,1.9-4.3,4.3-4.3h7v-1.1H94.1v1.1h7.2c2.4,0,4.3,1.9,4.3,4.3v15.8l0,0v27.1
		c21.8,9.4,36.6,16.5,36.6,35.5c0,22.5-16.1,34.6-41.1,34.6c-32.9,0-49.1-25.7-55.4-51.6h-1.2v51.3h1.2c1.6-3.9,4.4-8.3,10.3-8.3
		c10.6,0,26,9.6,45.1,9.6c36.3,0,58.4-18.9,58.4-45.9C159.5,122.8,153.2,110.8,127.7,97.5L127.7,97.5z"/>
</g>
</svg>
